<svg xmlns="http://www.w3.org/2000/svg" viewBox="0 0 96 96" role="img" aria-label="Logo">
  <defs>
    <linearGradient id="cp_a" x1="0" y1="0" x2="1" y2="1">
      <stop offset="0" stop-color="#32d6c6" />
      <stop offset="1" stop-color="#46b7ff" />
    </linearGradient>
    <linearGradient id="cp_b" x1="1" y1="0" x2="0" y2="1">
      <stop offset="0" stop-color="#a855f7" />
      <stop offset="1" stop-color="#ff4fd8" />
    </linearGradient>
    <linearGradient id="cp_c" x1="0" y1="0" x2="0" y2="1">
      <stop offset="0" stop-color="#8b5cf6" />
      <stop offset="1" stop-color="#22c55e" />
    </linearGradient>
    <linearGradient id="cp_d" x1="1" y1="0" x2="0" y2="1">
      <stop offset="0" stop-color="#22c55e" />
      <stop offset="1" stop-color="#46b7ff" />
    </linearGradient>
    <filter id="cp_glow" x="-50%" y="-50%" width="200%" height="200%">
      <feGaussianBlur stdDeviation="3" result="blur" />
      <feColorMatrix
        in="blur"
        type="matrix"
        values="1 0 0 0 0 0 1 0 0 0 0 0 1 0 0 0 0 0 0.6 0"
        result="glow"
      />
      <feMerge>
        <feMergeNode in="glow" />
        <feMergeNode in="SourceGraphic" />
      </feMerge>
    </filter>
  </defs>
  <rect x="0" y="0" width="96" height="96" rx="20" ry="20" fill="#f6f2e9" />
  <g filter="url(#cp_glow)" opacity="0.95">
    <polygon points="48,10 82,40 48,86 14,40" fill="rgba(178,139,255,0.10)" />
    <polygon points="48,10 14,40 48,48" fill="url(#cp_a)" />
    <polygon points="48,10 82,40 48,48" fill="url(#cp_b)" />
    <polygon points="14,40 48,86 48,48" fill="url(#cp_c)" />
    <polygon points="82,40 48,86 48,48" fill="url(#cp_d)" />
    <polygon points="48,14 72,39 48,32 24,39" fill="rgba(255,255,255,0.22)" />
    <path d="M48 10 L48 86 M14 40 L82 40 M24 39 L48 48 L72 39" fill="none" stroke="rgba(255,255,255,0.20)" stroke-width="1" />
    <polygon points="48,10 82,40 48,86 14,40" fill="none" stroke="rgba(255,255,255,0.28)" stroke-width="1" />
  </g>
</svg>
